<!DOCTYPE svg PUBLIC "-//W3C//DTD SVG 20010904//EN" "http://www.w3.org/TR/2001/REC-SVG-20010904/DTD/svg10.dtd">
<svg version="1.0" xmlns="http://www.w3.org/2000/svg" width="146px" height="146px" viewBox="0 0 1460 1460" preserveAspectRatio="xMidYMid meet">
<g id="layer101" fill="#6d4bf4" stroke="none">
 <path d="M545 1441 c-255 -71 -468 -289 -529 -542 -21 -86 -21 -253 0 -338 64 -261 289 -484 551 -546 106 -26 292 -17 391 18 216 75 390 249 470 469 25 67 27 85 27 228 0 143 -2 161 -27 228 -80 219 -253 392 -470 470 -101 35 -307 42 -413 13z"/>
 </g>
<g id="layer102" fill="#eeeeee" stroke="none">
 <path d="M237 1173 c-4 -3 -7 -163 -7 -355 l0 -348 510 0 510 0 -2 353 -3 352 -501 3 c-275 1 -504 -1 -507 -5z m415 -259 c15 -8 42 -32 59 -54 l32 -40 46 51 c50 55 90 71 149 58 128 -28 131 -223 4 -259 -57 -15 -103 2 -155 60 l-44 49 -33 -41 c-41 -51 -106 -81 -155 -72 -132 24 -140 227 -11 263 34 10 67 5 108 -15z"/>
 <path d="M533 905 c-91 -39 -78 -199 18 -220 59 -13 117 19 166 93 14 21 14 25 -11 60 -28 40 -91 82 -122 82 -11 -1 -33 -7 -51 -15z"/>
 <path d="M852 904 c-36 -18 -92 -83 -92 -107 0 -8 19 -35 43 -60 30 -33 53 -47 82 -53 88 -16 154 65 126 155 -20 67 -94 98 -159 65z"/>
 <path d="M230 382 c0 -27 7 -57 16 -70 l15 -22 479 0 479 0 15 22 c9 13 16 43 16 70 l0 48 -510 0 -510 0 0 -48z"/>
 </g>

</svg>